<?xml version="1.0" encoding="utf-8"?>
<!-- Generator: Adobe Illustrator 21.0.2, SVG Export Plug-In . SVG Version: 6.00 Build 0)  -->
<svg version="1.1" id="Layer_1" xmlns="http://www.w3.org/2000/svg" xmlns:xlink="http://www.w3.org/1999/xlink" x="0px" y="0px"
	 width="296px" height="162px" viewBox="0 0 296 162" style="enable-background:new 0 0 296 162;" xml:space="preserve">
<style type="text/css">
	.st0{fill:#16FFBD;}
	.st1{fill:#080D14;}
	.st2{fill:#FF8DAC;}
</style>

<g>
	<g>
		<g>
			<path class="st0" d="M30.9,20.1v-3.9c-1.4,0-1-0.1-2.4-0.1s-2.2,0.2-3.2,0.7c-0.9,0.5-1.3,1-1.7,1.7c-0.3,0.7-0.5,1.6-0.5,3V22
				h-2L21,25.9h2v9.9h4v-9.9h3.6l0.5-3.9h-4c0,0-0.3-1.2,0.3-1.8C27.7,20,30.9,20.1,30.9,20.1z"/>
		</g>
	</g>
	<g>
		<path class="st0" d="M26,51.3C12,51.3,0.7,39.9,0.7,26S12,0.7,26,0.7C39.9,0.7,51.3,12,51.3,26S39.9,51.3,26,51.3z M26,3.9
			C13.8,3.9,3.9,13.8,3.9,26S13.8,48.1,26,48.1S48.1,38.2,48.1,26S38.2,3.9,26,3.9z"/>
	</g>
</g>

<g>
	<g>
		<g>
			<path class="st1" d="M30.9,74.1v-3.9c-1.4,0-1-0.1-2.4-0.1s-2.2,0.2-3.2,0.7c-0.9,0.5-1.3,1-1.7,1.7c-0.3,0.7-0.5,1.6-0.5,3V76
				h-2L21,79.9h2v9.9h4v-9.9h3.6l0.5-3.9h-4c0,0-0.3-1.2,0.3-1.8C27.7,74,30.9,74.1,30.9,74.1z"/>
		</g>
	</g>
	<g>
		<path class="st1" d="M26,105.3C12,105.3,0.7,93.9,0.7,80S12,54.7,26,54.7C39.9,54.7,51.3,66,51.3,80S39.9,105.3,26,105.3z
			 M26,57.9C13.8,57.9,3.9,67.8,3.9,80s9.9,22.1,22.1,22.1S48.1,92.2,48.1,80S38.2,57.9,26,57.9z"/>
	</g>
</g>
<g>
	<g>
		<g>
			<path class="st2" d="M30.9,128.1v-3.9c-1.4,0-1-0.1-2.4-0.1s-2.2,0.2-3.2,0.7c-0.9,0.5-1.3,1-1.7,1.7c-0.3,0.7-0.5,1.6-0.5,3v0.5
				h-2l-0.1,3.9h2v9.9h4v-9.9h3.6l0.5-3.9h-4c0,0-0.3-1.2,0.3-1.8C27.7,128,30.9,128.1,30.9,128.1z"/>
		</g>
	</g>
	<g>
		<path class="st2" d="M26,159.3c-14,0-25.3-11.4-25.3-25.3S12,108.7,26,108.7c13.9,0,25.3,11.3,25.3,25.3
			C51.3,147.9,39.9,159.3,26,159.3z M26,111.9c-12.2,0-22.1,9.9-22.1,22.1s9.9,22.1,22.1,22.1s22.1-9.9,22.1-22.1
			C48.1,121.8,38.2,111.9,26,111.9z"/>
	</g>
</g>
<g>
  <g>
		<g>
			<path class="st0" d="M68.4,24.3c0,2.4,2.1,3.7,4.4,4.1c-0.4,0.1-0.6,0.5-2.2,0.4c0.6,2,2.4,2.7,4.6,2.7c-1.7,1.3-3.9,1.8-6.3,1.8
				c-0.4,0-0.8,0-1.2-0.1c2.2,1.4,4.8,2.8,7.7,2.8c9.2,0,13.7-6.8,13.7-13.5c0-0.2,0-0.4,0-0.6c1-0.7,2.5-1.7,3.1-2.7
				c-0.9,0.4-1.9,0-3,0.1c1-0.6,2.3-1.4,2.4-3.2c-1,0.6-2.3,1.3-3.4,1.6c-0.9-1-2.2-1.8-3.7-1.8c-2.8,0-4.6,2.6-4.6,5.3
				c0,0.4,0,0.6,0.1,1c-4.2-0.2-8.6-1.6-11.1-4.6c-0.4,0.7-0.7,1.6-0.7,2.5c0,1.7,1.3,3.3,2.7,4.2C70.3,24.3,70.4,24.9,68.4,24.3z"
				/>
		</g>
		<g>
			<path class="st0" d="M80,51.3C66.1,51.3,54.7,40,54.7,26S66.1,0.7,80,0.7S105.3,12,105.3,26S93.9,51.3,80,51.3z M80,3.9
				c-12.2,0-22.1,9.9-22.1,22.1S67.8,48.1,80,48.1s22.1-9.9,22.1-22.1S92.2,3.9,80,3.9z"/>
		</g>
	</g>
	<g>
		<g>
			<path class="st1" d="M68.4,78.3c0,2.4,2.1,3.7,4.4,4.1c-0.4,0.1-0.6,0.5-2.2,0.4c0.6,2,2.4,2.7,4.6,2.7c-1.7,1.3-3.9,1.8-6.3,1.8
				c-0.4,0-0.8,0-1.2-0.1c2.2,1.4,4.8,2.8,7.7,2.8c9.2,0,13.7-6.8,13.7-13.5c0-0.2,0-0.4,0-0.6c1-0.7,2.5-1.7,3.1-2.7
				c-0.9,0.4-1.9,0-3,0.1c1-0.6,2.3-1.4,2.4-3.2c-1,0.6-2.3,1.3-3.4,1.6c-0.9-1-2.2-1.8-3.7-1.8c-2.8,0-4.6,2.6-4.6,5.3
				c0,0.4,0,0.6,0.1,1c-4.2-0.2-8.6-1.6-11.1-4.6c-0.4,0.7-0.7,1.6-0.7,2.5c0,1.7,1.3,3.3,2.7,4.2C70.3,78.3,70.4,78.9,68.4,78.3z"
				/>
		</g>
		<g>
			<path class="st1" d="M80,105.3C66.1,105.3,54.7,94,54.7,80S66.1,54.7,80,54.7S105.3,66,105.3,80S93.9,105.3,80,105.3z M80,57.9
				c-12.2,0-22.1,9.9-22.1,22.1s9.9,22.1,22.1,22.1s22.1-9.9,22.1-22.1S92.2,57.9,80,57.9z"/>
		</g>
	</g>
	<g>
		<g>
			<path class="st2" d="M68.4,132.3c0,2.4,2.1,3.7,4.4,4.1c-0.4,0.1-0.6,0.5-2.2,0.4c0.6,2,2.4,2.7,4.6,2.7
				c-1.7,1.3-3.9,1.8-6.3,1.8c-0.4,0-0.8,0-1.2-0.1c2.2,1.4,4.8,2.8,7.7,2.8c9.2,0,13.7-6.8,13.7-13.5c0-0.2,0-0.4,0-0.6
				c1-0.7,2.5-1.7,3.1-2.7c-0.9,0.4-1.9,0-3,0.1c1-0.6,2.3-1.4,2.4-3.2c-1,0.6-2.3,1.3-3.4,1.6c-0.9-1-2.2-1.8-3.7-1.8
				c-2.8,0-4.6,2.6-4.6,5.3c0,0.4,0,0.6,0.1,1c-4.2-0.2-8.6-1.6-11.1-4.6c-0.4,0.7-0.7,1.6-0.7,2.5c0,1.7,1.3,3.3,2.7,4.2
				C70.3,132.3,70.4,132.9,68.4,132.3z"/>
		</g>
		<g>
			<path class="st2" d="M80,159.3c-13.9,0-25.3-11.3-25.3-25.3c0-13.9,11.3-25.3,25.3-25.3c13.9,0,25.3,11.3,25.3,25.3
				C105.3,147.9,93.9,159.3,80,159.3z M80,111.9c-12.2,0-22.1,9.9-22.1,22.1s9.9,22.1,22.1,22.1s22.1-9.9,22.1-22.1
				C102.1,121.8,92.2,111.9,80,111.9z"/>
		</g>
	</g>
</g>

</svg>
